<mxfile host="app.diagrams.net" modified="2022-05-09T07:19:55.978Z" agent="5.0 (Windows NT 10.0; Win64; x64) AppleWebKit/537.36 (KHTML, like Gecko) Chrome/101.0.4951.54 Safari/537.36" etag="q_60zUhwlOvRF0zhhkxd" version="18.0.2" type="github">
  <diagram name="Page-1" id="74e2e168-ea6b-b213-b513-2b3c1d86103e">
    <mxGraphModel dx="942" dy="582" grid="1" gridSize="10" guides="1" tooltips="1" connect="1" arrows="1" fold="1" page="1" pageScale="1" pageWidth="1100" pageHeight="850" background="none" math="0" shadow="0">
      <root>
        <mxCell id="0" />
        <mxCell id="1" parent="0" />
        <mxCell id="_OSq6aRmHxbY8f6nd1VQ-1" value="App" style="shape=cylinder3;whiteSpace=wrap;html=1;boundedLbl=1;backgroundOutline=1;size=15;" vertex="1" parent="1">
          <mxGeometry x="250" y="65" width="70" height="135" as="geometry" />
        </mxCell>
        <mxCell id="_OSq6aRmHxbY8f6nd1VQ-3" value="主机ID列表" style="swimlane;fontStyle=0;childLayout=stackLayout;horizontal=1;startSize=30;horizontalStack=0;resizeParent=1;resizeParentMax=0;resizeLast=0;collapsible=1;marginBottom=0;fillColor=#f8cecc;strokeColor=#b85450;" vertex="1" parent="1">
          <mxGeometry x="710" y="100" width="160" height="130" as="geometry" />
        </mxCell>
        <mxCell id="_OSq6aRmHxbY8f6nd1VQ-4" value="Master ID_01" style="text;strokeColor=#82b366;fillColor=#d5e8d4;align=left;verticalAlign=middle;spacingLeft=4;spacingRight=4;overflow=hidden;points=[[0,0.5],[1,0.5]];portConstraint=eastwest;rotatable=0;" vertex="1" parent="_OSq6aRmHxbY8f6nd1VQ-3">
          <mxGeometry y="30" width="160" height="30" as="geometry" />
        </mxCell>
        <mxCell id="_OSq6aRmHxbY8f6nd1VQ-5" value="Master ID_02" style="text;strokeColor=#82b366;fillColor=#d5e8d4;align=left;verticalAlign=middle;spacingLeft=4;spacingRight=4;overflow=hidden;points=[[0,0.5],[1,0.5]];portConstraint=eastwest;rotatable=0;" vertex="1" parent="_OSq6aRmHxbY8f6nd1VQ-3">
          <mxGeometry y="60" width="160" height="30" as="geometry" />
        </mxCell>
        <mxCell id="_OSq6aRmHxbY8f6nd1VQ-6" value="Master ID_03" style="text;strokeColor=#82b366;fillColor=#d5e8d4;align=left;verticalAlign=middle;spacingLeft=4;spacingRight=4;overflow=hidden;points=[[0,0.5],[1,0.5]];portConstraint=eastwest;rotatable=0;" vertex="1" parent="_OSq6aRmHxbY8f6nd1VQ-3">
          <mxGeometry y="90" width="160" height="40" as="geometry" />
        </mxCell>
        <mxCell id="_OSq6aRmHxbY8f6nd1VQ-7" value="设备" style="shape=cylinder3;whiteSpace=wrap;html=1;boundedLbl=1;backgroundOutline=1;size=15;" vertex="1" parent="1">
          <mxGeometry x="460" y="70" width="80" height="120" as="geometry" />
        </mxCell>
      </root>
    </mxGraphModel>
  </diagram>
</mxfile>
